<?xml version="1.0" encoding="utf-8"?>
<!-- Generator: Adobe Illustrator 24.2.1, SVG Export Plug-In . SVG Version: 6.00 Build 0)  -->
<svg version="1.1" id="Layer_1" xmlns="http://www.w3.org/2000/svg" xmlns:xlink="http://www.w3.org/1999/xlink" x="0px" y="0px"
	 viewBox="0 0 136 23" style="enable-background:new 0 0 136 23;" xml:space="preserve">
<style type="text/css">
	.st0{fill:#FFFFFF;}
</style>
<path class="st0" d="M0,0.3h4.7v22.4H0V0.3z"/>
<path class="st0" d="M15,0.3h4.7v22.4H15V0.3z"/>
<path class="st0" d="M7.5,0.3h4.7v15.4H7.5V0.3z"/>
<path class="st0" d="M22.6,7.7h4.7v15h-4.7V7.7z"/>
<path class="st0" d="M30.2,7.7h4.7v15h-4.7V7.7z"/>
<path class="st0" d="M30.2,0.2h12.1v4.2H30.2V0.2z"/>
<path class="st0" d="M22.6,0.2h4.7v4.2h-4.7V0.2z"/>
<path class="st0" d="M52.5,0.2h0.7v22.5h-0.7V0.2z"/>
<path class="st0" d="M63.3,10.3V0.4h12.8V5h-8.2v5.3H63.3z"/>
<path class="st0" d="M79.1,10.3V0.4h12.8V5h-8.2v5.3L79.1,10.3z"/>
<path class="st0" d="M79.1,13h4.6v5.3h8.2v4.6H79.1V13z"/>
<path class="st0" d="M95,22.9v-9.9h4.6v5.3h8.2v4.6L95,22.9z"/>
<path class="st0" d="M63.3,18.3h8.2v-5.3H76v9.9H63.3V18.3z"/>
<path class="st0" d="M106.1,2.3l-0.8,0.1c-0.1-0.4-0.4-0.6-0.9-0.6c-0.4,0-0.7,0.1-0.7,0.4c0,0.2,0.2,0.4,0.6,0.4l0.4,0.1
	c0.7,0.2,1.4,0.4,1.4,1.1c0,0.8-0.7,1.2-1.6,1.2c-1,0-1.6-0.5-1.7-1.2l0.8-0.1c0.1,0.4,0.4,0.7,0.9,0.7c0.5,0,0.8-0.2,0.8-0.5
	c0-0.3-0.3-0.4-0.7-0.5l-0.5-0.1c-0.6-0.1-1.2-0.4-1.2-1.1c0-0.7,0.7-1.1,1.5-1.1C105.2,1.2,105.9,1.6,106.1,2.3z M108.4,5.1
	c-1.2,0-1.8-0.8-1.8-1.9c0-1.1,0.7-1.9,1.8-1.9c1.2,0,1.8,0.9,1.8,2.2h-2.8c0,0.6,0.4,1,1,1c0.5,0,0.8-0.2,0.9-0.6l0.8,0.1
	C109.9,4.5,109.4,5.1,108.4,5.1z M108.4,1.9c-0.5,0-0.9,0.3-1,0.9h1.9C109.3,2.2,108.9,1.9,108.4,1.9z M111.6,1.3v0.5
	c0.2-0.3,0.6-0.5,1.1-0.5c0.5,0,0.8,0.2,1,0.5c0.2,0.2,0.2,0.5,0.2,1V5h-0.8V2.9c0-0.4,0-0.7-0.2-0.8c-0.1-0.1-0.3-0.2-0.5-0.2
	c-0.6,0-0.9,0.5-0.9,1.2V5h-0.8V1.3H111.6z M117.9,2.3l-0.8,0.1c-0.1-0.4-0.4-0.6-0.9-0.6c-0.4,0-0.7,0.1-0.7,0.4
	c0,0.2,0.2,0.4,0.6,0.4l0.4,0.1c0.7,0.2,1.4,0.4,1.4,1.1c0,0.8-0.7,1.2-1.6,1.2c-1,0-1.6-0.5-1.7-1.2l0.8-0.1
	c0.1,0.4,0.4,0.7,0.9,0.7c0.5,0,0.8-0.2,0.8-0.5c0-0.3-0.3-0.4-0.7-0.5l-0.5-0.1c-0.6-0.1-1.2-0.4-1.2-1.1c0-0.7,0.7-1.1,1.5-1.1
	C117,1.2,117.7,1.6,117.9,2.3z M120.2,5.1c-1.2,0-1.8-0.8-1.8-1.9c0-1.1,0.7-1.9,1.8-1.9c1.2,0,1.8,0.9,1.8,2.2h-2.8
	c0,0.6,0.4,1,1,1c0.5,0,0.8-0.2,0.9-0.6l0.8,0.1C121.7,4.5,121.2,5.1,120.2,5.1z M120.2,1.9c-0.5,0-0.9,0.3-1,0.9h1.9
	C121.1,2.2,120.7,1.9,120.2,1.9z M123.3,2.4l-0.8,0c0.1-0.7,0.6-1.2,1.6-1.2c1.1,0,1.5,0.4,1.5,1.4c0,0.2,0,0.9,0,1.1
	c0,0.5,0,0.9,0.1,1.3h-0.8l0-0.4c-0.2,0.3-0.6,0.5-1.2,0.5c-0.8,0-1.3-0.6-1.3-1.2c0-0.4,0.2-0.6,0.4-0.8c0.3-0.2,0.8-0.3,1.3-0.4
	l0.7-0.1V2.5c0-0.5-0.3-0.7-0.7-0.7C123.6,1.8,123.3,2,123.3,2.4z M124.8,3.4V3.2l-0.7,0.1c-0.6,0.1-0.9,0.2-0.9,0.6
	c0,0.3,0.2,0.5,0.6,0.5C124.4,4.4,124.8,4.1,124.8,3.4z M126.5,5V0h0.8v1.7c0.2-0.3,0.6-0.5,1.1-0.5c0.9,0,1.6,0.7,1.6,1.9
	c0,1.2-0.7,1.9-1.6,1.9c-0.5,0-0.8-0.2-1-0.5l0,0.4H126.5z M128.2,1.9c-0.5,0-0.9,0.4-0.9,1.3c0,0.8,0.4,1.2,0.9,1.2
	c0.6,0,0.9-0.5,0.9-1.2C129.1,2.4,128.8,1.9,128.2,1.9z M131.5,0v5h-0.8V0H131.5z M134,5.1c-1.2,0-1.8-0.8-1.8-1.9
	c0-1.1,0.7-1.9,1.8-1.9c1.2,0,1.8,0.9,1.8,2.2H133c0,0.6,0.4,1,1,1c0.5,0,0.8-0.2,0.9-0.6l0.8,0.1C135.5,4.5,135,5.1,134,5.1z
	 M134,1.9c-0.5,0-0.9,0.3-1,0.9h1.9C134.9,2.2,134.5,1.9,134,1.9z"/>
<path class="st0" d="M104.7,7.9c0.8,0,1.5,0.5,1.6,1.3l-0.8,0.1c-0.1-0.4-0.4-0.7-0.9-0.7c-0.5,0-0.9,0.4-0.9,1.2
	c0,0.8,0.4,1.3,0.9,1.3c0.4,0,0.8-0.2,0.9-0.7l0.8,0.1c-0.2,0.8-0.9,1.3-1.7,1.3c-1.1,0-1.8-0.8-1.8-1.9
	C102.9,8.7,103.5,7.9,104.7,7.9z M107,8h0.8v3.7H107V8z M107,6.7h0.8v0.8H107V6.7z M108.9,8V6.9h0.8V8h0.7v0.6h-0.7v1.9
	c0,0.4,0.1,0.5,0.4,0.5h0.3v0.7h-0.6c-0.8,0-1-0.2-1-1v-2h-0.6V8H108.9z M111.3,13h-0.4v-0.7h0.3c0.4,0,0.5,0,0.7-0.5l0-0.1L110.6,8
	h0.9l0.8,2.6l0.9-2.6h0.8l-1.3,3.7C112.4,12.6,112.1,13,111.3,13z M116.9,6.7v5h-0.8v-5H116.9z M118.5,9.1l-0.8,0
	c0.1-0.7,0.6-1.2,1.6-1.2c1.1,0,1.5,0.4,1.5,1.4c0,0.2,0,0.9,0,1.1c0,0.5,0,0.9,0.1,1.3h-0.8l0-0.4c-0.2,0.3-0.6,0.5-1.2,0.5
	c-0.8,0-1.3-0.6-1.3-1.2c0-0.4,0.2-0.6,0.4-0.8c0.3-0.2,0.8-0.3,1.3-0.4l0.7-0.1V9.2c0-0.5-0.3-0.7-0.7-0.7
	C118.9,8.5,118.6,8.8,118.5,9.1z M120.1,10.1V9.9l-0.7,0.1c-0.6,0.1-0.9,0.2-0.9,0.6c0,0.3,0.2,0.5,0.6,0.5
	C119.6,11.1,120.1,10.8,120.1,10.1z M121.8,11.7v-5h0.8v1.7c0.2-0.3,0.6-0.5,1.1-0.5c0.9,0,1.6,0.7,1.6,1.9c0,1.2-0.7,1.9-1.6,1.9
	c-0.5,0-0.8-0.2-1-0.5l0,0.4H121.8z M123.5,8.6c-0.5,0-0.9,0.4-0.9,1.3c0,0.8,0.4,1.2,0.9,1.2c0.6,0,0.9-0.5,0.9-1.2
	C124.4,9.1,124.1,8.6,123.5,8.6z M126.6,11.7h-0.9v-0.9h0.9V11.7z"/>
</svg>
